ply
format ascii 1.0
comment Created by Blender 2.79 (sub 0) - www.blender.org, source file: 'peon.blend'
element vertex 398
property float x
property float y
property float z
property float nx
property float ny
property float nz
property uchar red
property uchar green
property uchar blue
element face 158
property list uchar uint vertex_indices
end_header
0.000000 1.492477 0.984953 -0.195090 0.000000 0.980785 255 0 0
-0.382683 -0.015046 0.908833 -0.195090 0.000000 0.980785 255 0 0
0.000000 -0.015046 0.984953 -0.195090 0.000000 0.980785 255 0 0
-0.382683 1.530538 0.908833 -0.555570 0.000000 0.831470 255 0 0
-0.707107 -0.015046 0.692060 -0.555570 0.000000 0.831470 255 0 0
-0.382683 -0.015046 0.908833 -0.555570 0.000000 0.831470 255 0 0
-0.707107 1.638924 0.692060 -0.831470 -0.000000 0.555570 255 0 0
-0.923880 -0.015046 0.367637 -0.831470 -0.000000 0.555570 255 0 0
-0.707107 -0.015046 0.692060 -0.831470 -0.000000 0.555570 255 0 0
-0.923879 1.801135 0.367637 -0.980785 0.000000 0.195090 255 0 0
-1.000000 -0.015046 -0.015047 -0.980785 0.000000 0.195090 255 0 0
-0.923880 -0.015046 0.367637 -0.980785 0.000000 0.195090 255 0 0
-1.000000 1.992477 -0.015046 -0.980785 0.000000 -0.195090 255 0 0
-0.923880 -0.015046 -0.397730 -0.980785 0.000000 -0.195090 255 0 0
-1.000000 -0.015046 -0.015047 -0.980785 0.000000 -0.195090 255 0 0
-0.923879 2.183819 -0.397730 -0.831470 0.000000 -0.555570 255 0 0
-0.707107 -0.015046 -0.722153 -0.831470 0.000000 -0.555570 255 0 0
-0.923880 -0.015046 -0.397730 -0.831470 0.000000 -0.555570 255 0 0
-0.707107 2.346031 -0.722153 -0.555570 0.000000 -0.831470 255 0 0
-0.382684 -0.015046 -0.938926 -0.555570 0.000000 -0.831470 255 0 0
-0.707107 -0.015046 -0.722153 -0.555570 0.000000 -0.831470 255 0 0
-0.382683 2.454417 -0.938926 -0.195091 0.000000 -0.980785 255 0 0
-0.000000 -0.015045 -1.015047 -0.195091 0.000000 -0.980785 255 0 0
-0.382684 -0.015046 -0.938926 -0.195091 0.000000 -0.980785 255 0 0
-0.000000 -0.015045 -1.015047 0.195090 0.000000 -0.980785 255 0 0
0.382683 2.454417 -0.938926 0.195090 0.000000 -0.980785 255 0 0
0.382683 -0.015046 -0.938926 0.195090 0.000000 -0.980785 255 0 0
0.382683 -0.015046 -0.938926 0.555570 0.000000 -0.831470 255 0 0
0.707107 2.346030 -0.722153 0.555570 0.000000 -0.831470 255 0 0
0.707106 -0.015046 -0.722154 0.555570 0.000000 -0.831470 255 0 0
0.707106 -0.015046 -0.722154 0.831470 0.000000 -0.555571 255 0 0
0.923880 2.183819 -0.397730 0.831470 0.000000 -0.555571 255 0 0
0.923880 -0.015046 -0.397730 0.831470 0.000000 -0.555571 255 0 0
0.923880 -0.015046 -0.397730 0.980785 0.000000 -0.195090 255 0 0
1.000000 1.992477 -0.015047 0.980785 0.000000 -0.195090 255 0 0
1.000000 -0.015046 -0.015047 0.980785 0.000000 -0.195090 255 0 0
1.000000 -0.015046 -0.015047 0.980785 0.000000 0.195090 255 0 0
0.923880 1.801135 0.367637 0.980785 0.000000 0.195090 255 0 0
0.923880 -0.015046 0.367637 0.980785 0.000000 0.195090 255 0 0
0.923880 -0.015046 0.367637 0.831470 0.000000 0.555570 255 0 0
0.707107 1.638924 0.692060 0.831470 0.000000 0.555570 255 0 0
0.707107 -0.015046 0.692060 0.831470 0.000000 0.555570 255 0 0
0.707107 -0.015046 0.692060 0.555570 0.000000 0.831470 255 0 0
0.382683 1.530538 0.908833 0.555570 0.000000 0.831470 255 0 0
0.382683 -0.015046 0.908833 0.555570 0.000000 0.831470 255 0 0
0.382683 -0.015046 0.908833 0.195091 -0.000000 0.980785 255 0 0
0.000000 1.492477 0.984953 0.195091 -0.000000 0.980785 255 0 0
0.000000 -0.015046 0.984953 0.195091 -0.000000 0.980785 255 0 0
-0.382684 -0.015046 -0.938926 -0.000000 -1.000000 -0.000000 255 0 0
0.923880 -0.015046 -0.397730 -0.000000 -1.000000 -0.000000 255 0 0
0.382683 -0.015046 0.908833 -0.000000 -1.000000 -0.000000 255 0 0
0.000000 1.913221 0.908833 -0.175273 0.175273 0.968792 255 255 255
-0.382683 1.530538 0.908833 -0.175273 0.175273 0.968792 255 255 255
0.000000 1.492477 0.984953 -0.175273 0.175273 0.968792 255 255 255
-0.000000 2.725015 0.367637 -0.086111 0.647890 0.756851 255 255 255
-0.270598 2.372943 0.638235 -0.086111 0.647890 0.756851 255 255 255
0.000000 2.346031 0.692060 -0.086111 0.647890 0.756851 255 255 255
0.000000 2.346031 0.692060 -0.132145 0.443894 0.886282 255 255 255
-0.353553 1.948384 0.838507 -0.132145 0.443894 0.886282 255 255 255
0.000000 1.913221 0.908833 -0.132145 0.443894 0.886282 255 255 255
-0.000000 2.725015 0.367637 -0.032412 0.819220 0.572563 255 0 0
-0.000000 2.992477 -0.015047 -0.032412 0.819220 0.572563 255 0 0
-0.146447 2.739580 0.338507 -0.032412 0.819220 0.572563 255 0 0
-0.270598 2.372943 0.638235 -0.385058 0.454207 0.803384 255 255 255
-0.653281 2.048520 0.638235 -0.385058 0.454207 0.803384 255 255 255
-0.353553 1.948384 0.838507 -0.385058 0.454207 0.803384 255 255 255
-0.146447 2.739580 0.338507 -0.093261 0.827674 0.553406 255 0 0
-0.000000 2.992477 -0.015047 -0.093261 0.827674 0.553406 255 0 0
-0.270598 2.781057 0.255552 -0.093261 0.827674 0.553406 255 0 0
-0.353553 1.948384 0.838507 -0.505108 0.177370 0.844634 255 255 255
-0.707107 1.638924 0.692060 -0.505108 0.177370 0.844634 255 255 255
-0.382683 1.530538 0.908833 -0.505108 0.177370 0.844634 255 255 255
-0.146447 2.739580 0.338507 -0.250631 0.662181 0.706187 255 255 255
-0.500000 2.449584 0.484953 -0.250631 0.662181 0.706187 255 255 255
-0.270598 2.372943 0.638235 -0.250631 0.662181 0.706187 255 255 255
-0.270598 2.781057 0.255552 -0.142324 0.844007 0.517104 255 0 0
-0.000000 2.992477 -0.015047 -0.142324 0.844007 0.517104 255 0 0
-0.353553 2.843133 0.131400 -0.142324 0.844007 0.517104 255 0 0
-0.653281 2.048520 0.638235 -0.773347 0.181453 0.607461 255 255 255
-0.923879 1.801135 0.367637 -0.773347 0.181453 0.607461 255 255 255
-0.707107 1.638924 0.692060 -0.773347 0.181453 0.607461 255 255 255
-0.270598 2.781057 0.255552 -0.391579 0.691282 0.607285 255 255 255
-0.653281 2.564285 0.255551 -0.391579 0.691282 0.607285 255 255 255
-0.500000 2.449584 0.484953 -0.391579 0.691282 0.607285 255 255 255
-0.500000 2.449584 0.484953 -0.603065 0.475318 0.640614 255 255 255
-0.853553 2.198384 0.338507 -0.603065 0.475318 0.640614 255 255 255
-0.653281 2.048520 0.638235 -0.603065 0.475318 0.640614 255 255 255
-0.853553 2.198384 0.338507 -0.941308 0.187238 0.280857 255 255 255
-1.000000 1.992477 -0.015046 -0.941308 0.187238 0.280857 255 255 255
-0.923879 1.801135 0.367637 -0.941308 0.187238 0.280857 255 255 255
-0.353553 2.843133 0.131400 -0.491649 0.735804 0.465698 255 255 255
-0.707107 2.699584 -0.015046 -0.491649 0.735804 0.465698 255 250 250
-0.653281 2.564285 0.255551 -0.491649 0.735804 0.465698 255 255 255
-0.653281 2.564285 0.255551 -0.760164 0.507925 0.405169 255 255 255
-0.923879 2.375161 -0.015047 -0.760164 0.507925 0.405169 255 255 255
-0.853553 2.198384 0.338507 -0.760164 0.507925 0.405169 255 255 255
-0.353553 2.843133 0.131400 -0.172434 0.866882 0.467741 255 0 0
-0.000000 2.992477 -0.015047 -0.172434 0.866882 0.467741 255 0 0
-0.382683 2.916357 -0.015046 -0.172434 0.866882 0.467741 255 0 0
-0.707107 2.699584 -0.015046 -0.826267 0.552094 0.111692 255 0 0
-0.853553 2.551937 -0.368600 -0.826267 0.552094 0.111692 255 0 0
-0.923879 2.375161 -0.015047 -0.826267 0.552094 0.111692 255 0 0
-0.382683 2.916357 -0.015046 -0.177801 0.893868 0.411567 255 0 0
-0.000000 2.992477 -0.015047 -0.177801 0.893868 0.411567 255 0 0
-0.353553 2.989580 -0.161493 -0.177801 0.893868 0.411567 255 0 0
-0.923879 2.375161 -0.015047 -0.976152 0.194169 -0.097085 255 0 0
-0.923879 2.183819 -0.397730 -0.976152 0.194169 -0.097085 255 0 0
-1.000000 1.992477 -0.015046 -0.976152 0.194169 -0.097085 255 0 0
-0.382683 2.916357 -0.015046 -0.531370 0.795250 0.291930 255 0 0
-0.653281 2.834883 -0.285644 -0.531370 0.795250 0.291930 255 0 0
-0.707107 2.699584 -0.015046 -0.531370 0.795250 0.291930 255 0 0
-0.653281 2.834883 -0.285644 -0.767792 0.605151 -0.210447 255 0 0
-0.653281 2.701802 -0.668328 -0.767792 0.605151 -0.210447 255 0 0
-0.853553 2.551937 -0.368600 -0.767792 0.605151 -0.210447 255 0 0
-0.353553 2.989580 -0.161493 -0.155338 0.921177 0.356796 255 0 0
-0.000000 2.992477 -0.015047 -0.155338 0.921177 0.356796 255 0 0
-0.270598 3.051656 -0.285644 -0.155338 0.921177 0.356796 255 0 0
-0.853553 2.551937 -0.368600 -0.857966 0.201307 -0.472621 255 0 0
-0.707107 2.346031 -0.722153 -0.857966 0.201307 -0.472621 255 0 0
-0.923879 2.183819 -0.397730 -0.857966 0.201307 -0.472621 255 0 0
-0.353553 2.989580 -0.161493 -0.490141 0.865279 0.105137 255 0 0
-0.500000 2.949584 -0.515046 -0.490141 0.865279 0.105137 255 0 0
-0.653281 2.834883 -0.285644 -0.490141 0.865279 0.105137 255 0 0
-0.653281 2.701802 -0.668328 -0.590443 0.207336 -0.779993 255 0 0
-0.382683 2.454417 -0.938926 -0.590443 0.207336 -0.779993 255 0 0
-0.707107 2.346031 -0.722153 -0.590443 0.207336 -0.779993 255 0 0
-0.270598 3.051656 -0.285644 -0.353305 0.933450 -0.062032 255 0 0
-0.270598 3.026225 -0.668328 -0.353305 0.933450 -0.062032 255 0 0
-0.500000 2.949584 -0.515046 -0.353305 0.933450 -0.062032 255 0 0
-0.500000 2.949584 -0.515046 -0.557822 0.657996 -0.505842 255 0 0
-0.353553 2.801937 -0.868600 -0.557822 0.657996 -0.505842 255 0 0
-0.653281 2.701802 -0.668328 -0.557822 0.657996 -0.505842 255 0 0
-0.270598 3.051656 -0.285644 -0.106348 0.943858 0.312766 255 0 0
-0.000000 2.992477 -0.015047 -0.106348 0.943858 0.312766 255 0 0
-0.146447 3.093133 -0.368600 -0.106348 0.943858 0.312766 255 0 0
-0.353553 2.801937 -0.868600 -0.210833 0.210833 -0.954515 255 0 0
0.000000 2.492477 -1.015046 -0.210833 0.210833 -0.954515 255 0 0
-0.382683 2.454417 -0.938926 -0.210833 0.210833 -0.954515 255 0 0
-0.146447 3.093133 -0.368600 -0.129956 0.977788 -0.164443 255 0 0
0.000000 3.053137 -0.722153 -0.129956 0.977788 -0.164443 255 0 0
-0.270598 3.026225 -0.668328 -0.129956 0.977788 -0.164443 255 0 0
-0.270598 3.026225 -0.668328 -0.206322 0.693068 -0.690716 255 0 0
0.000000 2.837101 -0.938926 -0.206322 0.693068 -0.690716 255 0 0
-0.353553 2.801937 -0.868600 -0.206322 0.693068 -0.690716 255 0 0
-0.146447 3.093133 -0.368600 -0.037859 0.956853 0.288096 255 0 0
-0.000000 2.992477 -0.015047 -0.037859 0.956853 0.288096 255 0 0
0.000000 3.107698 -0.397730 -0.037859 0.956853 0.288096 255 0 0
0.000000 2.837101 -0.938926 0.206321 0.693069 -0.690715 255 0 0
0.270598 3.026225 -0.668328 0.206321 0.693069 -0.690715 255 0 0
0.353553 2.801938 -0.868600 0.206321 0.693069 -0.690715 255 0 0
0.000000 3.107698 -0.397730 0.037859 0.956853 0.288096 255 0 0
-0.000000 2.992477 -0.015047 0.037859 0.956853 0.288096 255 0 0
0.146447 3.093133 -0.368600 0.037859 0.956853 0.288096 255 0 0
0.000000 2.492477 -1.015046 0.210832 0.210835 -0.954515 255 0 0
0.353553 2.801938 -0.868600 0.210832 0.210835 -0.954515 255 0 0
0.382683 2.454417 -0.938926 0.210832 0.210835 -0.954515 255 0 0
0.000000 3.053137 -0.722153 0.129957 0.977788 -0.164443 255 0 0
0.146447 3.093133 -0.368600 0.129957 0.977788 -0.164443 255 0 0
0.270598 3.026225 -0.668328 0.129957 0.977788 -0.164443 255 0 0
0.353553 2.801938 -0.868600 0.557823 0.657996 -0.505841 255 0 0
0.500000 2.949584 -0.515046 0.557823 0.657996 -0.505841 255 0 0
0.653281 2.701801 -0.668328 0.557823 0.657996 -0.505841 255 0 0
0.146447 3.093133 -0.368600 0.106349 0.943858 0.312766 255 0 0
-0.000000 2.992477 -0.015047 0.106349 0.943858 0.312766 255 0 0
0.270598 3.051656 -0.285644 0.106349 0.943858 0.312766 255 0 0
0.382683 2.454417 -0.938926 0.590444 0.207336 -0.779992 255 0 0
0.653281 2.701801 -0.668328 0.590444 0.207336 -0.779992 255 0 0
0.707107 2.346030 -0.722153 0.590444 0.207336 -0.779992 255 0 0
0.270598 3.026225 -0.668328 0.353304 0.933450 -0.062032 255 0 0
0.270598 3.051656 -0.285644 0.353304 0.933450 -0.062032 255 0 0
0.500000 2.949584 -0.515046 0.353304 0.933450 -0.062032 255 0 0
0.707107 2.346030 -0.722153 0.857965 0.201309 -0.472621 255 0 0
0.853553 2.551937 -0.368600 0.857965 0.201309 -0.472621 255 0 0
0.923880 2.183819 -0.397730 0.857965 0.201309 -0.472621 255 0 0
0.500000 2.949584 -0.515046 0.490141 0.865279 0.105138 255 0 0
0.353553 2.989580 -0.161493 0.490141 0.865279 0.105138 255 0 0
0.653281 2.834883 -0.285644 0.490141 0.865279 0.105138 255 0 0
0.653281 2.701801 -0.668328 0.767792 0.605150 -0.210447 255 0 0
0.653281 2.834883 -0.285644 0.767792 0.605150 -0.210447 255 0 0
0.853553 2.551937 -0.368600 0.767792 0.605150 -0.210447 255 0 0
0.270598 3.051656 -0.285644 0.155338 0.921177 0.356795 255 0 0
-0.000000 2.992477 -0.015047 0.155338 0.921177 0.356795 255 0 0
0.353553 2.989580 -0.161493 0.155338 0.921177 0.356795 255 0 0
0.653281 2.834883 -0.285644 0.531370 0.795251 0.291930 255 0 0
0.382683 2.916357 -0.015046 0.531370 0.795251 0.291930 255 0 0
0.707106 2.699584 -0.015046 0.531370 0.795251 0.291930 255 0 0
0.853553 2.551937 -0.368600 0.826267 0.552094 0.111692 255 0 0
0.707106 2.699584 -0.015046 0.826267 0.552094 0.111692 255 0 0
0.923879 2.375160 -0.015046 0.826267 0.552094 0.111692 255 0 0
0.353553 2.989580 -0.161493 0.177802 0.893868 0.411567 255 0 0
-0.000000 2.992477 -0.015047 0.177802 0.893868 0.411567 255 0 0
0.382683 2.916357 -0.015046 0.177802 0.893868 0.411567 255 0 0
0.923880 2.183819 -0.397730 0.976152 0.194170 -0.097084 255 0 0
0.923879 2.375160 -0.015046 0.976152 0.194170 -0.097084 255 0 0
1.000000 1.992477 -0.015047 0.976152 0.194170 -0.097084 255 0 0
0.923879 2.375160 -0.015046 0.760164 0.507925 0.405169 255 255 255
0.653281 2.564285 0.255552 0.760164 0.507925 0.405169 255 255 255
0.853553 2.198384 0.338507 0.760164 0.507925 0.405169 255 255 255
0.382683 2.916357 -0.015046 0.172434 0.866882 0.467741 255 0 0
-0.000000 2.992477 -0.015047 0.172434 0.866882 0.467741 255 0 0
0.353553 2.843133 0.131400 0.172434 0.866882 0.467741 255 0 0
1.000000 1.992477 -0.015047 0.941308 0.187239 0.280857 255 255 255
0.853553 2.198384 0.338507 0.941308 0.187239 0.280857 255 255 255
0.923880 1.801135 0.367637 0.941308 0.187239 0.280857 255 255 255
0.707106 2.699584 -0.015046 0.491649 0.735804 0.465698 255 249 249
0.353553 2.843133 0.131400 0.491649 0.735804 0.465698 255 255 255
0.653281 2.564285 0.255552 0.491649 0.735804 0.465698 255 255 255
0.353553 2.843133 0.131400 0.142325 0.844007 0.517102 255 0 0
-0.000000 2.992477 -0.015047 0.142325 0.844007 0.517102 255 0 0
0.270598 2.781058 0.255551 0.142325 0.844007 0.517102 255 0 0
0.923880 1.801135 0.367637 0.773347 0.181453 0.607461 255 255 255
0.653281 2.048520 0.638235 0.773347 0.181453 0.607461 255 255 255
0.707107 1.638924 0.692060 0.773347 0.181453 0.607461 255 255 255
0.653281 2.564285 0.255552 0.391580 0.691281 0.607286 255 255 255
0.270598 2.781058 0.255551 0.391580 0.691281 0.607286 255 255 255
0.500000 2.449584 0.484953 0.391580 0.691281 0.607286 255 255 255
0.853553 2.198384 0.338507 0.603065 0.475317 0.640614 255 255 255
0.500000 2.449584 0.484953 0.603065 0.475317 0.640614 255 255 255
0.653281 2.048520 0.638235 0.603065 0.475317 0.640614 255 255 255
0.707107 1.638924 0.692060 0.505108 0.177371 0.844634 255 255 255
0.353553 1.948384 0.838506 0.505108 0.177371 0.844634 255 255 255
0.382683 1.530538 0.908833 0.505108 0.177371 0.844634 255 255 255
0.500000 2.449584 0.484953 0.250631 0.662181 0.706187 255 255 255
0.146446 2.739580 0.338507 0.250631 0.662181 0.706187 255 255 255
0.270598 2.372943 0.638235 0.250631 0.662181 0.706187 255 255 255
0.653281 2.048520 0.638235 0.385058 0.454207 0.803384 255 255 255
0.270598 2.372943 0.638235 0.385058 0.454207 0.803384 255 255 255
0.353553 1.948384 0.838506 0.385058 0.454207 0.803384 255 255 255
0.270598 2.781058 0.255551 0.093258 0.827673 0.553407 255 0 0
-0.000000 2.992477 -0.015047 0.093258 0.827673 0.553407 255 0 0
0.146446 2.739580 0.338507 0.093258 0.827673 0.553407 255 0 0
0.353553 1.948384 0.838506 0.132145 0.443894 0.886282 255 255 255
0.000000 2.346031 0.692060 0.132145 0.443894 0.886282 255 255 255
0.000000 1.913221 0.908833 0.132145 0.443894 0.886282 255 255 255
0.146446 2.739580 0.338507 0.032413 0.819220 0.572563 255 0 0
-0.000000 2.992477 -0.015047 0.032413 0.819220 0.572563 255 0 0
-0.000000 2.725015 0.367637 0.032413 0.819220 0.572563 255 0 0
0.382683 1.530538 0.908833 0.175274 0.175273 0.968792 255 255 255
0.000000 1.913221 0.908833 0.175274 0.175273 0.968792 255 255 255
0.000000 1.492477 0.984953 0.175274 0.175273 0.968792 255 255 255
0.270598 2.372943 0.638235 0.086111 0.647890 0.756851 255 255 255
-0.000000 2.725015 0.367637 0.086111 0.647890 0.756851 255 255 255
0.000000 2.346031 0.692060 0.086111 0.647890 0.756851 255 255 255
0.000000 1.492477 0.984953 -0.195091 0.000000 0.980785 255 0 0
-0.382683 1.530538 0.908833 -0.195091 0.000000 0.980785 255 0 0
-0.382683 -0.015046 0.908833 -0.195091 0.000000 0.980785 255 0 0
-0.707107 1.638924 0.692060 -0.555570 -0.000000 0.831470 255 0 0
-0.923879 1.801135 0.367637 -0.831470 -0.000000 0.555570 255 0 0
-0.923879 1.801135 0.367637 -0.980785 -0.000000 0.195091 255 0 0
-1.000000 1.992477 -0.015046 -0.980785 -0.000000 0.195091 255 0 0
-1.000000 -0.015046 -0.015047 -0.980785 -0.000000 0.195091 255 0 0
-1.000000 1.992477 -0.015046 -0.980785 0.000000 -0.195091 255 0 0
-0.923879 2.183819 -0.397730 -0.980785 0.000000 -0.195091 255 0 0
-0.923880 -0.015046 -0.397730 -0.980785 0.000000 -0.195091 255 0 0
-0.707107 2.346031 -0.722153 -0.831470 0.000000 -0.555570 255 0 0
-0.382683 2.454417 -0.938926 -0.555570 0.000000 -0.831470 255 0 0
-0.382683 2.454417 -0.938926 -0.195090 0.000000 -0.980785 255 0 0
0.000000 2.492477 -1.015046 -0.195090 0.000000 -0.980785 255 0 0
-0.000000 -0.015045 -1.015047 -0.195090 0.000000 -0.980785 255 0 0
-0.000000 -0.015045 -1.015047 0.195089 0.000000 -0.980785 255 0 0
0.000000 2.492477 -1.015046 0.195089 0.000000 -0.980785 255 0 0
0.382683 2.454417 -0.938926 0.195089 0.000000 -0.980785 255 0 0
0.382683 -0.015046 -0.938926 0.555571 0.000000 -0.831469 255 0 0
0.382683 2.454417 -0.938926 0.555571 0.000000 -0.831469 255 0 0
0.707107 2.346030 -0.722153 0.555571 0.000000 -0.831469 255 0 0
0.707106 -0.015046 -0.722154 0.831469 0.000000 -0.555571 255 0 0
0.707107 2.346030 -0.722153 0.831469 0.000000 -0.555571 255 0 0
0.923880 2.183819 -0.397730 0.831469 0.000000 -0.555571 255 0 0
0.923880 2.183819 -0.397730 0.980785 0.000000 -0.195090 255 0 0
1.000000 1.992477 -0.015047 0.980785 -0.000000 0.195090 255 0 0
0.923880 1.801135 0.367637 0.831470 0.000000 0.555570 255 0 0
0.707107 1.638924 0.692060 0.555570 0.000000 0.831470 255 0 0
0.382683 1.530538 0.908833 0.195091 0.000000 0.980785 255 0 0
0.000000 -0.015046 0.984953 -0.000000 -1.000000 -0.000000 255 0 0
-0.923880 -0.015046 0.367637 -0.000000 -1.000000 -0.000000 255 0 0
-0.382683 -0.015046 0.908833 0.000000 -1.000000 -0.000000 255 0 0
-0.382683 -0.015046 0.908833 0.000001 -1.000000 -0.000001 255 0 0
-0.707107 -0.015046 0.692060 0.000001 -1.000000 -0.000001 255 0 0
-0.923880 -0.015046 0.367637 0.000001 -1.000000 -0.000001 255 0 0
-1.000000 -0.015046 -0.015047 0.000000 -1.000000 0.000000 255 0 0
-0.923880 -0.015046 -0.397730 0.000000 -1.000000 0.000000 255 0 0
-0.923880 -0.015046 -0.397730 -0.000001 -1.000000 -0.000001 255 0 0
-0.707107 -0.015046 -0.722153 -0.000001 -1.000000 -0.000001 255 0 0
-0.382684 -0.015046 -0.938926 -0.000001 -1.000000 -0.000001 255 0 0
-0.382684 -0.015046 -0.938926 -0.000000 -1.000000 -0.000002 255 0 0
-0.000000 -0.015045 -1.015047 -0.000000 -1.000000 -0.000002 255 0 0
0.382683 -0.015046 -0.938926 -0.000000 -1.000000 -0.000002 255 0 0
0.382683 -0.015046 -0.938926 0.000001 -1.000000 -0.000001 255 0 0
0.707106 -0.015046 -0.722154 0.000001 -1.000000 -0.000001 255 0 0
0.923880 -0.015046 -0.397730 0.000001 -1.000000 -0.000001 255 0 0
1.000000 -0.015046 -0.015047 0.000000 -1.000000 0.000000 255 0 0
1.000000 -0.015046 -0.015047 0.000001 -1.000000 0.000000 255 0 0
0.923880 -0.015046 0.367637 0.000001 -1.000000 0.000000 255 0 0
0.382683 -0.015046 0.908833 0.000001 -1.000000 0.000000 255 0 0
0.923880 -0.015046 0.367637 -0.000001 -1.000000 -0.000001 255 0 0
0.707107 -0.015046 0.692060 -0.000001 -1.000000 -0.000001 255 0 0
0.382683 -0.015046 0.908833 -0.000001 -1.000000 -0.000001 255 0 0
0.382683 -0.015046 -0.938926 -0.000000 -1.000000 -0.000000 255 0 0
0.000000 1.913221 0.908833 -0.175273 0.175273 0.968793 255 255 255
-0.353553 1.948384 0.838507 -0.175273 0.175273 0.968793 255 255 255
-0.382683 1.530538 0.908833 -0.175273 0.175273 0.968793 255 255 255
-0.000000 2.725015 0.367637 -0.086109 0.647889 0.756852 255 255 255
-0.146447 2.739580 0.338507 -0.086109 0.647889 0.756852 255 255 255
-0.270598 2.372943 0.638235 -0.086109 0.647889 0.756852 255 255 255
-0.270598 2.372943 0.638235 -0.132145 0.443894 0.886282 255 255 255
-0.500000 2.449584 0.484953 -0.385058 0.454207 0.803384 255 255 255
-0.353553 1.948384 0.838507 -0.505108 0.177371 0.844633 255 255 255
-0.653281 2.048520 0.638235 -0.505108 0.177371 0.844633 255 255 255
-0.707107 1.638924 0.692060 -0.505108 0.177371 0.844633 255 255 255
-0.146447 2.739580 0.338507 -0.250633 0.662182 0.706185 255 255 255
-0.270598 2.781057 0.255552 -0.250633 0.662182 0.706185 255 255 255
-0.500000 2.449584 0.484953 -0.250633 0.662182 0.706185 255 255 255
-0.853553 2.198384 0.338507 -0.773347 0.181453 0.607461 255 255 255
-0.270598 2.781057 0.255552 -0.391579 0.691281 0.607287 255 255 255
-0.353553 2.843133 0.131400 -0.391579 0.691281 0.607287 255 255 255
-0.653281 2.564285 0.255551 -0.391579 0.691281 0.607287 255 255 255
-0.500000 2.449584 0.484953 -0.603065 0.475318 0.640613 255 255 255
-0.653281 2.564285 0.255551 -0.603065 0.475318 0.640613 255 255 255
-0.853553 2.198384 0.338507 -0.603065 0.475318 0.640613 255 255 255
-0.923879 2.375161 -0.015047 -0.941308 0.187238 0.280857 255 255 255
-0.382683 2.916357 -0.015046 -0.491649 0.735804 0.465698 255 249 249
-0.707107 2.699584 -0.015046 -0.760164 0.507925 0.405169 255 250 250
-0.707107 2.699584 -0.015046 -0.826267 0.552094 0.111693 255 0 0
-0.653281 2.834883 -0.285644 -0.826267 0.552094 0.111693 255 0 0
-0.853553 2.551937 -0.368600 -0.826267 0.552094 0.111693 255 0 0
-0.923879 2.375161 -0.015047 -0.976152 0.194169 -0.097084 255 0 0
-0.853553 2.551937 -0.368600 -0.976152 0.194169 -0.097084 255 0 0
-0.923879 2.183819 -0.397730 -0.976152 0.194169 -0.097084 255 0 0
-0.382683 2.916357 -0.015046 -0.531369 0.795251 0.291930 255 0 0
-0.353553 2.989580 -0.161493 -0.531369 0.795251 0.291930 255 0 0
-0.653281 2.834883 -0.285644 -0.531369 0.795251 0.291930 255 0 0
-0.500000 2.949584 -0.515046 -0.767792 0.605151 -0.210447 255 0 0
-0.653281 2.701802 -0.668328 -0.857966 0.201307 -0.472621 255 0 0
-0.353553 2.989580 -0.161493 -0.490142 0.865278 0.105138 255 0 0
-0.270598 3.051656 -0.285644 -0.490142 0.865278 0.105138 255 0 0
-0.500000 2.949584 -0.515046 -0.490142 0.865278 0.105138 255 0 0
-0.353553 2.801937 -0.868600 -0.590443 0.207336 -0.779993 255 0 0
-0.270598 3.051656 -0.285644 -0.353303 0.933450 -0.062032 255 0 0
-0.146447 3.093133 -0.368600 -0.353303 0.933450 -0.062032 255 0 0
-0.270598 3.026225 -0.668328 -0.353303 0.933450 -0.062032 255 0 0
-0.270598 3.026225 -0.668328 -0.557822 0.657996 -0.505842 255 0 0
0.000000 2.837101 -0.938926 -0.210833 0.210833 -0.954515 255 0 0
-0.146447 3.093133 -0.368600 -0.129957 0.977788 -0.164443 255 0 0
0.000000 3.107698 -0.397730 -0.129957 0.977788 -0.164443 255 0 0
0.000000 3.053137 -0.722153 -0.129957 0.977788 -0.164443 255 0 0
-0.270598 3.026225 -0.668328 -0.206321 0.693068 -0.690716 255 0 0
0.000000 3.053137 -0.722153 -0.206321 0.693068 -0.690716 255 0 0
0.000000 2.837101 -0.938926 -0.206321 0.693068 -0.690716 255 0 0
0.000000 2.837101 -0.938926 0.206322 0.693068 -0.690715 255 0 0
0.000000 3.053137 -0.722153 0.206322 0.693068 -0.690715 255 0 0
0.270598 3.026225 -0.668328 0.206322 0.693068 -0.690715 255 0 0
0.000000 2.492477 -1.015046 0.210833 0.210834 -0.954515 255 0 0
0.000000 2.837101 -0.938926 0.210833 0.210834 -0.954515 255 0 0
0.353553 2.801938 -0.868600 0.210833 0.210834 -0.954515 255 0 0
0.000000 3.107698 -0.397730 0.129957 0.977788 -0.164443 255 0 0
0.353553 2.801938 -0.868600 0.557822 0.657996 -0.505841 255 0 0
0.270598 3.026225 -0.668328 0.557822 0.657996 -0.505841 255 0 0
0.500000 2.949584 -0.515046 0.557822 0.657996 -0.505841 255 0 0
0.382683 2.454417 -0.938926 0.590444 0.207337 -0.779992 255 0 0
0.353553 2.801938 -0.868600 0.590444 0.207337 -0.779992 255 0 0
0.653281 2.701801 -0.668328 0.590444 0.207337 -0.779992 255 0 0
0.146447 3.093133 -0.368600 0.353304 0.933450 -0.062032 255 0 0
0.707107 2.346030 -0.722153 0.857966 0.201307 -0.472620 255 0 0
0.653281 2.701801 -0.668328 0.857966 0.201307 -0.472620 255 0 0
0.853553 2.551937 -0.368600 0.857966 0.201307 -0.472620 255 0 0
0.270598 3.051656 -0.285644 0.490141 0.865279 0.105138 255 0 0
0.653281 2.701801 -0.668328 0.767792 0.605151 -0.210447 255 0 0
0.500000 2.949584 -0.515046 0.767792 0.605151 -0.210447 255 0 0
0.653281 2.834883 -0.285644 0.767792 0.605151 -0.210447 255 0 0
0.653281 2.834883 -0.285644 0.531370 0.795251 0.291929 255 0 0
0.353553 2.989580 -0.161493 0.531370 0.795251 0.291929 255 0 0
0.382683 2.916357 -0.015046 0.531370 0.795251 0.291929 255 0 0
0.853553 2.551937 -0.368600 0.826267 0.552093 0.111692 255 0 0
0.653281 2.834883 -0.285644 0.826267 0.552093 0.111692 255 0 0
0.707106 2.699584 -0.015046 0.826267 0.552093 0.111692 255 0 0
0.853553 2.551937 -0.368600 0.976152 0.194170 -0.097084 255 0 0
0.707106 2.699584 -0.015046 0.760164 0.507925 0.405169 255 249 249
0.923879 2.375160 -0.015046 0.941308 0.187239 0.280857 255 255 255
0.382683 2.916357 -0.015046 0.491649 0.735804 0.465698 255 235 235
0.853553 2.198384 0.338507 0.773347 0.181453 0.607461 255 255 255
0.353553 2.843133 0.131400 0.391580 0.691281 0.607286 255 255 255
0.853553 2.198384 0.338507 0.603065 0.475318 0.640614 255 255 255
0.653281 2.564285 0.255552 0.603065 0.475318 0.640614 255 255 255
0.500000 2.449584 0.484953 0.603065 0.475318 0.640614 255 255 255
0.707107 1.638924 0.692060 0.505108 0.177371 0.844633 255 255 255
0.653281 2.048520 0.638235 0.505108 0.177371 0.844633 255 255 255
0.353553 1.948384 0.838506 0.505108 0.177371 0.844633 255 255 255
0.500000 2.449584 0.484953 0.250631 0.662182 0.706187 255 255 255
0.270598 2.781058 0.255551 0.250631 0.662182 0.706187 255 255 255
0.146446 2.739580 0.338507 0.250631 0.662182 0.706187 255 255 255
0.500000 2.449584 0.484953 0.385058 0.454207 0.803384 255 255 255
0.353553 1.948384 0.838506 0.132146 0.443894 0.886282 255 255 255
0.270598 2.372943 0.638235 0.132146 0.443894 0.886282 255 255 255
0.000000 2.346031 0.692060 0.132146 0.443894 0.886282 255 255 255
0.353553 1.948384 0.838506 0.175274 0.175273 0.968792 255 255 255
0.270598 2.372943 0.638235 0.086110 0.647890 0.756851 255 255 255
0.146446 2.739580 0.338507 0.086110 0.647890 0.756851 255 255 255
-0.000000 2.725015 0.367637 0.086110 0.647890 0.756851 255 255 255
3 0 1 2
3 3 4 5
3 6 7 8
3 9 10 11
3 12 13 14
3 15 16 17
3 18 19 20
3 21 22 23
3 24 25 26
3 27 28 29
3 30 31 32
3 33 34 35
3 36 37 38
3 39 40 41
3 42 43 44
3 45 46 47
3 48 49 50
3 51 52 53
3 54 55 56
3 57 58 59
3 60 61 62
3 63 64 65
3 66 67 68
3 69 70 71
3 72 73 74
3 75 76 77
3 78 79 80
3 81 82 83
3 84 85 86
3 87 88 89
3 90 91 92
3 93 94 95
3 96 97 98
3 99 100 101
3 102 103 104
3 105 106 107
3 108 109 110
3 111 112 113
3 114 115 116
3 117 118 119
3 120 121 122
3 123 124 125
3 126 127 128
3 129 130 131
3 132 133 134
3 135 136 137
3 138 139 140
3 141 142 143
3 144 145 146
3 147 148 149
3 150 151 152
3 153 154 155
3 156 157 158
3 159 160 161
3 162 163 164
3 165 166 167
3 168 169 170
3 171 172 173
3 174 175 176
3 177 178 179
3 180 181 182
3 183 184 185
3 186 187 188
3 189 190 191
3 192 193 194
3 195 196 197
3 198 199 200
3 201 202 203
3 204 205 206
3 207 208 209
3 210 211 212
3 213 214 215
3 216 217 218
3 219 220 221
3 222 223 224
3 225 226 227
3 228 229 230
3 231 232 233
3 234 235 236
3 237 238 239
3 240 241 242
3 243 244 245
3 3 246 4
3 6 247 7
3 248 249 250
3 251 252 253
3 15 254 16
3 18 255 19
3 256 257 258
3 259 260 261
3 262 263 264
3 265 266 267
3 33 268 34
3 36 269 37
3 39 270 40
3 42 271 43
3 45 272 46
3 50 273 274
3 273 275 274
3 276 277 278
3 274 279 280
3 281 282 283
3 284 285 286
3 287 288 289
3 49 290 50
3 291 292 293
3 294 295 296
3 274 280 48
3 48 297 49
3 50 274 48
3 298 299 300
3 301 302 303
3 57 304 58
3 63 305 64
3 306 307 308
3 309 310 311
3 78 312 79
3 313 314 315
3 316 317 318
3 87 319 88
3 90 320 91
3 93 321 94
3 322 323 324
3 325 326 327
3 328 329 330
3 111 331 112
3 117 332 118
3 333 334 335
3 123 336 124
3 337 338 339
3 129 340 130
3 135 341 136
3 342 343 344
3 345 346 347
3 348 349 350
3 351 352 353
3 156 354 157
3 355 356 357
3 358 359 360
3 168 361 169
3 362 363 364
3 174 365 175
3 366 367 368
3 369 370 371
3 372 373 374
3 192 375 193
3 195 376 196
3 201 377 202
3 204 378 205
3 210 379 211
3 213 380 214
3 381 382 383
3 384 385 386
3 387 388 389
3 225 390 226
3 391 392 393
3 237 394 238
3 395 396 397
